<?xml version="1.0" standalone="no"?>
<!DOCTYPE svg PUBLIC "-//W3C//DTD SVG 20010904//EN"
 "http://www.w3.org/TR/2001/REC-SVG-20010904/DTD/svg10.dtd">
<svg version="1.0" xmlns="http://www.w3.org/2000/svg"
 width="64.000000pt" height="64.000000pt" viewBox="0 0 64.000000 64.000000"
 preserveAspectRatio="xMidYMid meet">

<g transform="translate(0.000000,64.000000) scale(0.100000,-0.100000)"
fill="#000000" stroke="none">
<path d="M12 608 c-17 -17 -17 -559 0 -576 17 -17 599 -17 616 0 17 17 17 559
0 576 -17 17 -599 17 -616 0z m578 -83 l0 -45 -270 0 -270 0 0 45 0 45 270 0
270 0 0 -45z m0 -270 l0 -185 -270 0 -270 0 0 185 0 185 270 0 270 0 0 -185z"/>
<path d="M127 394 c-11 -12 3 -24 27 -24 26 0 35 -16 62 -120 9 -36 21 -71 27
-77 13 -18 171 -18 185 0 6 6 17 40 26 74 9 34 19 69 22 78 5 13 -11 15 -125
15 l-130 0 -16 30 c-12 23 -23 30 -44 30 -15 0 -31 -3 -34 -6z"/>
<path d="M281 136 c-9 -10 -8 -16 3 -25 10 -9 16 -8 25 3 9 10 8 16 -3 25 -10
9 -16 8 -25 -3z"/>
<path d="M364 135 c-3 -8 -3 -19 0 -24 9 -13 36 -2 36 14 0 19 -30 27 -36 10z"/>
</g>
</svg>
