<svg width="15" height="15" viewBox="0 0 15 15" fill="none" xmlns="http://www.w3.org/2000/svg">
<g clip-path="url(#clip0_7_794)">
<path d="M1.17188 0C0.861074 0 0.563003 0.123465 0.343234 0.343234C0.123465 0.563003 0 0.861074 0 1.17188L0 13.8281C0 14.1389 0.123465 14.437 0.343234 14.6568C0.563003 14.8765 0.861074 15 1.17188 15H13.8281C14.1389 15 14.437 14.8765 14.6568 14.6568C14.8765 14.437 15 14.1389 15 13.8281V1.17188C15 0.861074 14.8765 0.563003 14.6568 0.343234C14.437 0.123465 14.1389 0 13.8281 0L1.17188 0Z" fill="white"/>
<path d="M4.12498 5.02779C4.1824 5.26217 4.15006 5.51529 4.20654 5.75365C4.40342 5.60951 4.53467 5.37162 4.50771 5.12389C4.50373 4.68045 4.00498 4.33287 3.58756 4.48217C3.32506 4.55717 3.13099 4.79271 3.08693 5.05873C3.03443 5.36342 3.21748 5.67514 3.48959 5.81435C3.46264 5.55185 3.39959 5.27529 3.47014 5.01842C3.57795 4.73857 4.02537 4.7442 4.12498 5.02779ZM11.8917 5.3456C11.9873 5.00154 11.7792 4.60264 11.4379 4.49248C11.1098 4.36357 10.7037 4.52764 10.559 4.84732C10.3978 5.14334 10.4953 5.56451 10.7901 5.73795C10.8483 5.50029 10.8054 5.24576 10.8745 5.0149C10.9847 4.73904 11.4265 4.74701 11.527 5.02662C11.591 5.27646 11.5331 5.53896 11.509 5.79115C11.7091 5.72928 11.834 5.53803 11.8915 5.34631L11.8917 5.3456Z" fill="#C9C9C9"/>
<path d="M10.875 5.0147C10.8056 5.24791 10.8485 5.50033 10.7906 5.73775C10.6191 6.769 9.92859 7.69056 8.99367 8.15252C8.52829 8.38671 8.01443 8.50837 7.49346 8.50772C6.97248 8.50707 6.45893 8.38412 5.99414 8.14877C5.06789 7.68799 4.38281 6.77416 4.20679 5.75392C4.15054 5.51533 4.18242 5.26478 4.12523 5.02806C4.02585 4.74681 3.5782 4.73861 3.47039 5.01869C3.40007 5.27791 3.46335 5.55236 3.48984 5.81463C3.68671 7.08963 4.53984 8.23455 5.69578 8.80291C6.22702 9.06572 6.80931 9.20917 7.40184 9.22318C7.99437 9.23718 8.58279 9.12142 9.12585 8.884C10.3758 8.34424 11.3102 7.13885 11.5102 5.79025C11.5343 5.53806 11.5922 5.27533 11.528 5.02572C11.4272 4.74611 10.9856 4.73838 10.8752 5.014L10.875 5.0147Z" fill="black"/>
<path d="M1.17188 0C0.861074 0 0.563003 0.123465 0.343234 0.343234C0.123465 0.563003 0 0.861074 0 1.17188L0 3.39844C0 3.08764 0.123465 2.78957 0.343234 2.5698C0.563003 2.35003 0.861074 2.22656 1.17188 2.22656H13.8281C14.1389 2.22656 14.437 2.35003 14.6568 2.5698C14.8765 2.78957 15 3.08764 15 3.39844V1.17188C15 0.861074 14.8765 0.563003 14.6568 0.343234C14.437 0.123465 14.1389 0 13.8281 0L1.17188 0Z" fill="#C9C9C9"/>
</g>
<defs>
<clipPath id="clip0_7_794">
<rect width="15" height="15" fill="white"/>
</clipPath>
</defs>
</svg>
