<svg width="15" height="15" viewBox="0 0 15 15" fill="none" xmlns="http://www.w3.org/2000/svg">
<path d="M10.8662 6.06154C10.8662 6.5508 10.8838 7.03713 10.8604 7.52639C10.8369 8.08303 11.0068 8.56057 11.3584 8.98244C11.3994 9.03225 11.4375 9.08205 11.4727 9.13478C11.5986 9.32521 11.5752 9.45705 11.4023 9.60353C11.0332 9.91408 10.667 10.2276 10.2979 10.5381C10.0781 10.7227 9.94043 10.7197 9.71778 10.5381C9.41895 10.2949 9.18457 9.99611 8.97657 9.67678C8.92676 9.6006 8.90039 9.60353 8.83887 9.66213C8.46973 10.0225 8.08008 10.3565 7.58496 10.5235C6.82032 10.7842 6.04395 10.8252 5.27637 10.5528C4.53809 10.2891 4.09571 9.74416 3.93164 8.98537C3.75 8.13869 3.84375 7.33303 4.36524 6.61525C4.76075 6.07326 5.3086 5.75393 5.93848 5.55764C6.58887 5.35842 7.25977 5.28225 7.9336 5.21486C8.12403 5.19436 8.31153 5.17678 8.50196 5.1592C8.54883 5.15627 8.58985 5.15041 8.58692 5.08889C8.58106 4.77834 8.61328 4.46193 8.54004 4.15725C8.44629 3.7676 8.19141 3.53908 7.80176 3.45412C7.52344 3.3926 7.24805 3.41018 6.97852 3.501C6.56836 3.64162 6.31348 3.9258 6.21094 4.34768C6.15528 4.57912 6.04688 4.66115 5.82129 4.63771C5.34082 4.58791 4.86035 4.53811 4.38282 4.4883C4.18653 4.46779 4.08399 4.31838 4.125 4.12795C4.37403 2.91213 5.1709 2.22951 6.31934 1.91604C7.20117 1.6758 8.09473 1.66115 8.9795 1.91018C9.69141 2.10939 10.2891 2.46096 10.623 3.15822C10.8135 3.55373 10.8574 3.98146 10.8633 4.4092C10.8691 4.95705 10.8633 5.51076 10.8662 6.06154ZM8.58692 6.97561C8.58692 6.82912 8.58106 6.68264 8.58985 6.53615C8.59571 6.44533 8.56348 6.41311 8.47266 6.42189C8.25 6.4424 8.02442 6.44533 7.80176 6.47463C7.41211 6.52443 7.03125 6.62111 6.71485 6.86721C6.25489 7.22756 6.15821 7.71975 6.23438 8.27346C6.3252 8.92385 6.90528 9.2842 7.52637 9.0674C7.94824 8.92092 8.20606 8.61037 8.38477 8.22072C8.57227 7.82521 8.58692 7.40041 8.58692 6.97561Z" fill="white"/>
<path d="M7.50296 13.5879C5.2676 13.5733 3.26077 12.9991 1.44729 11.7891C1.07815 11.543 0.726589 11.2735 0.392605 10.9776C0.363308 10.9512 0.334011 10.9248 0.310573 10.8926C0.278347 10.8487 0.254909 10.7959 0.292995 10.7432C0.331081 10.6846 0.395534 10.6788 0.451198 10.7051C0.580105 10.7666 0.703151 10.834 0.829128 10.8985C1.98342 11.5079 3.19925 11.9473 4.47366 12.2256C5.62796 12.4776 6.79397 12.5948 7.97756 12.5625C9.66799 12.5157 11.2969 12.1758 12.8643 11.5459C12.9405 11.5137 13.0196 11.4815 13.0987 11.4639C13.21 11.4434 13.3213 11.458 13.3711 11.5782C13.418 11.6895 13.3565 11.7774 13.2744 11.8477C13.2158 11.8975 13.1485 11.9385 13.0811 11.9825C12.0703 12.6387 10.9629 13.0606 9.79104 13.3213C9.0176 13.4971 8.23245 13.5821 7.50296 13.5879Z" fill="white"/>
<path d="M13.1426 10.9776C12.8057 10.9746 12.4717 11.0186 12.1377 11.0537C12.0733 11.0596 12 11.0772 11.9707 11.0069C11.9356 10.9278 12.0029 10.8809 12.0586 10.8428C12.4746 10.5674 12.9404 10.459 13.4297 10.4326C13.7666 10.4121 14.1006 10.4268 14.4287 10.5264C14.5781 10.5703 14.6514 10.6582 14.6485 10.8106C14.6309 11.625 14.3584 12.334 13.7695 12.9111C13.749 12.9317 13.7256 12.9492 13.7022 12.9668C13.6494 13.0049 13.585 13.0401 13.5293 12.9932C13.4766 12.9492 13.5059 12.8848 13.5293 12.832C13.7022 12.4014 13.8779 11.9736 13.9629 11.5137C13.9746 11.4551 13.9776 11.3965 13.9805 11.3408C13.9834 11.1504 13.916 11.0684 13.7285 11.0215C13.5322 10.9688 13.336 10.9776 13.1426 10.9776Z" fill="white"/>
</svg>
