<svg width="15" height="15" viewBox="0 0 15 15" fill="none" xmlns="http://www.w3.org/2000/svg">
<g clip-path="url(#clip0_7_777)">
<path d="M8.90625 12.1875V9.37497C8.90625 9.25065 8.85686 9.13142 8.76896 9.04352C8.68105 8.95561 8.56182 8.90622 8.4375 8.90622H6.5625C6.43818 8.90622 6.31895 8.95561 6.23104 9.04352C6.14314 9.13142 6.09375 9.25065 6.09375 9.37497V12.1875C6.09375 12.3118 6.04436 12.431 5.95646 12.5189C5.86855 12.6068 5.74932 12.6562 5.625 12.6562H2.8125C2.68818 12.6562 2.56895 12.6068 2.48104 12.5189C2.39314 12.431 2.34375 12.3118 2.34375 12.1875V6.76755C2.3448 6.70268 2.35882 6.63867 2.38498 6.5793C2.41115 6.51993 2.44892 6.4664 2.49609 6.42185L7.18359 2.16208C7.27001 2.08303 7.38288 2.03918 7.5 2.03918C7.61712 2.03918 7.72999 2.08303 7.81641 2.16208L12.5039 6.42185C12.5511 6.4664 12.5889 6.51993 12.615 6.5793C12.6412 6.63867 12.6552 6.70268 12.6562 6.76755V12.1875C12.6562 12.3118 12.6069 12.431 12.519 12.5189C12.431 12.6068 12.3118 12.6562 12.1875 12.6562H9.375C9.25068 12.6562 9.13145 12.6068 9.04354 12.5189C8.95564 12.431 8.90625 12.3118 8.90625 12.1875Z" stroke="white" stroke-linecap="round" stroke-linejoin="round"/>
</g>
<defs>
<clipPath id="clip0_7_777">
<rect width="15" height="15" fill="white"/>
</clipPath>
</defs>
</svg>
