<svg width="15" height="15" viewBox="0 0 15 15" fill="none" xmlns="http://www.w3.org/2000/svg">
<g clip-path="url(#clip0_7_780)">
<path d="M9.37501 4.6875L4.49415 9.65039C4.33256 9.82873 4.24574 10.0624 4.25167 10.303C4.25759 10.5435 4.3558 10.7726 4.52597 10.9428C4.69614 11.113 4.92523 11.2112 5.16581 11.2171C5.40639 11.223 5.64003 11.1362 5.81837 10.9746L11.6367 5.07422C11.9599 4.71755 12.1335 4.25026 12.1217 3.7691C12.1098 3.28794 11.9134 2.82976 11.5731 2.48942C11.2328 2.14909 10.7746 1.95266 10.2934 1.94082C9.81225 1.92897 9.34496 2.10261 8.98829 2.42578L3.16993 8.32617C2.64313 8.85298 2.34717 9.56748 2.34717 10.3125C2.34717 11.0575 2.64313 11.772 3.16993 12.2988C3.69674 12.8256 4.41124 13.1216 5.15626 13.1216C5.90128 13.1216 6.61578 12.8256 7.14259 12.2988L11.9531 7.5" stroke="white" stroke-linecap="round" stroke-linejoin="round"/>
</g>
<defs>
<clipPath id="clip0_7_780">
<rect width="15" height="15" fill="white"/>
</clipPath>
</defs>
</svg>
