<svg width="15" height="15" viewBox="0 0 15 15" fill="none" xmlns="http://www.w3.org/2000/svg">
<g clip-path="url(#clip0_7_815)">
<path d="M9.14062 5.85938H5.85938V9.14062H9.14062V5.85938Z" stroke="white" stroke-linecap="round" stroke-linejoin="round"/>
<path d="M11.7188 2.8125H3.28125C3.02237 2.8125 2.8125 3.02237 2.8125 3.28125V11.7188C2.8125 11.9776 3.02237 12.1875 3.28125 12.1875H11.7188C11.9776 12.1875 12.1875 11.9776 12.1875 11.7188V3.28125C12.1875 3.02237 11.9776 2.8125 11.7188 2.8125Z" stroke="white" stroke-linecap="round" stroke-linejoin="round"/>
<path d="M12.1875 6.09375H13.5938" stroke="white" stroke-linecap="round" stroke-linejoin="round"/>
<path d="M12.1875 8.90625H13.5938" stroke="white" stroke-linecap="round" stroke-linejoin="round"/>
<path d="M1.40625 6.09375H2.8125" stroke="white" stroke-linecap="round" stroke-linejoin="round"/>
<path d="M1.40625 8.90625H2.8125" stroke="white" stroke-linecap="round" stroke-linejoin="round"/>
<path d="M8.90625 12.1875V13.5938" stroke="white" stroke-linecap="round" stroke-linejoin="round"/>
<path d="M6.09375 12.1875V13.5938" stroke="white" stroke-linecap="round" stroke-linejoin="round"/>
<path d="M8.90625 1.40625V2.8125" stroke="white" stroke-linecap="round" stroke-linejoin="round"/>
<path d="M6.09375 1.40625V2.8125" stroke="white" stroke-linecap="round" stroke-linejoin="round"/>
</g>
<defs>
<clipPath id="clip0_7_815">
<rect width="15" height="15" fill="white"/>
</clipPath>
</defs>
</svg>
