<svg width="15" height="15" viewBox="0 0 15 15" fill="none" xmlns="http://www.w3.org/2000/svg">
<path fill-rule="evenodd" clip-rule="evenodd" d="M4.40791 0.045C5.20792 0.00833181 5.46292 0 7.5 0C9.53748 0 9.79207 0.00874772 10.5916 0.045C11.3904 0.0812523 11.9358 0.208336 12.4129 0.39375C12.9133 0.582143 13.3666 0.877323 13.7412 1.25875C14.1227 1.63336 14.4179 2.08668 14.6063 2.58708C14.7916 3.06417 14.9183 3.60959 14.955 4.40791C14.9917 5.20792 15 5.46292 15 7.5C15 9.53707 14.9913 9.79207 14.955 10.5921C14.9187 11.3904 14.7916 11.9358 14.6063 12.4129C14.4146 12.9059 14.1579 13.3246 13.7412 13.7412C13.3666 14.1227 12.9133 14.4179 12.4129 14.6063C11.9358 14.7916 11.3904 14.9183 10.5921 14.955C9.79207 14.9917 9.53707 15 7.5 15C5.46292 15 5.20792 14.9913 4.40791 14.955C3.60959 14.9187 3.06417 14.7916 2.58708 14.6063C2.09416 14.4146 1.67542 14.1579 1.25875 13.7412C0.877255 13.3666 0.582055 12.9133 0.39375 12.4129C0.208336 11.9358 0.0816682 11.3904 0.045 10.5921C0.00833181 9.79207 0 9.53748 0 7.5C0 5.4625 0.00874772 5.20792 0.045 4.40834C0.0812523 3.60959 0.208336 3.06417 0.39375 2.58708C0.582143 2.08671 0.877323 1.63342 1.25875 1.25875C1.63336 0.877255 2.08667 0.582055 2.58708 0.39375C3.06417 0.208336 3.60959 0.0816682 4.40791 0.045ZM10.5308 1.395C9.73998 1.35916 9.5025 1.35125 7.5 1.35125C5.4975 1.35125 5.26 1.35916 4.46917 1.395C3.73792 1.42833 3.34083 1.55041 3.07666 1.65333C2.72667 1.78917 2.47666 1.95166 2.21416 2.21416C1.95209 2.47666 1.78917 2.72667 1.65333 3.07666C1.55041 3.34083 1.42833 3.73792 1.395 4.46917C1.35916 5.26 1.35125 5.4975 1.35125 7.5C1.35125 9.5025 1.35916 9.73998 1.395 10.5308C1.42833 11.2621 1.55041 11.6592 1.65333 11.9234C1.77348 12.2491 1.96513 12.5438 2.21416 12.7859C2.45614 13.0349 2.75087 13.2265 3.07666 13.3467C3.34083 13.4496 3.73792 13.5717 4.46917 13.605C5.26 13.6409 5.49708 13.6488 7.5 13.6488C9.50291 13.6488 9.73998 13.6409 10.5308 13.605C11.2621 13.5717 11.6592 13.4496 11.9234 13.3467C12.2733 13.2108 12.5234 13.0484 12.7859 12.7859C13.0349 12.5439 13.2265 12.2491 13.3467 11.9234C13.4496 11.6592 13.5717 11.2621 13.605 10.5308C13.6409 9.73998 13.6488 9.5025 13.6488 7.5C13.6488 5.4975 13.6409 5.26 13.605 4.46917C13.5717 3.73792 13.4496 3.34083 13.3467 3.07666C13.2108 2.72667 13.0484 2.47666 12.7859 2.21416C12.5234 1.95209 12.2733 1.78917 11.9234 1.65333C11.6592 1.55041 11.2621 1.42833 10.5308 1.395ZM6.54239 9.81198C6.846 9.93777 7.17136 10.0025 7.5 10.0025C8.16375 10.0025 8.80023 9.73882 9.26952 9.26952C9.73889 8.80023 10.0025 8.16368 10.0025 7.5C10.0025 6.83632 9.73889 6.19977 9.26952 5.73046C8.80023 5.26115 8.16375 4.9975 7.5 4.9975C7.17136 4.9975 6.846 5.06223 6.54239 5.18799C6.2387 5.31375 5.96286 5.49808 5.73048 5.73046C5.49811 5.96284 5.31377 6.2387 5.18801 6.54232C5.06225 6.84593 4.99752 7.17136 4.99752 7.5C4.99752 7.82864 5.06225 8.15407 5.18801 8.45768C5.31377 8.7613 5.49811 9.03716 5.73048 9.26952C5.96286 9.50189 6.2387 9.68625 6.54239 9.81198ZM4.77413 4.7741C5.49708 4.05115 6.47761 3.64499 7.5 3.64499C8.52245 3.64499 9.50298 4.05115 10.2259 4.7741C10.9488 5.49705 11.355 6.47761 11.355 7.5C11.355 8.52239 10.9488 9.50291 10.2259 10.2259C9.50298 10.9488 8.52245 11.355 7.5 11.355C6.47761 11.355 5.49708 10.9488 4.77413 10.2259C4.05117 9.50291 3.64502 8.52239 3.64502 7.5C3.64502 6.47761 4.05117 5.49705 4.77413 4.7741ZM12.2098 4.21935C12.3807 4.04845 12.4767 3.81668 12.4767 3.575C12.4767 3.33331 12.3807 3.10154 12.2098 2.93065C12.0389 2.75975 11.8071 2.66375 11.5654 2.66375C11.3238 2.66375 11.092 2.75975 10.9211 2.93065C10.7502 3.10154 10.6542 3.33331 10.6542 3.575C10.6542 3.81668 10.7502 4.04845 10.9211 4.21935C11.092 4.39024 11.3238 4.48625 11.5654 4.48625C11.8071 4.48625 12.0389 4.39024 12.2098 4.21935Z" fill="white"/>
</svg>
