<svg width="15" height="15" viewBox="0 0 15 15" fill="none" xmlns="http://www.w3.org/2000/svg">
<path d="M4.61499 1.20454C4.27048 1.34212 3.94247 1.53001 3.7178 1.82485C3.49312 2.1197 3.40705 2.53642 3.552 2.97128C3.77449 3.63874 3.91521 4.28634 4.12269 4.83219C4.29628 5.28891 4.53803 5.69756 4.93135 5.9262L5.19075 6.95706V7.78882L2.01477 7.78826C1.53981 7.78826 1.14746 8.17891 1.14746 8.65386V13.7985C1.14746 13.9804 1.26626 14.1403 1.48467 14.1403C3.39378 14.1411 5.30266 14.1397 7.21125 14.1397C7.36982 14.1391 7.49821 14.0107 7.49885 13.8521C7.49885 11.5538 7.49885 9.25543 7.49885 6.95709L7.74584 5.9753C8.19434 5.75983 8.45916 5.32342 8.64585 4.83225C8.85333 4.28638 8.99405 3.63877 9.21654 2.9713C9.36149 2.53644 9.27711 2.11971 9.05244 1.82488C8.82776 1.53002 8.4975 1.34214 8.15299 1.20457C7.46397 0.929423 6.70457 0.859445 6.38399 0.859436C6.06341 0.859418 5.30401 0.929423 4.61499 1.20454ZM6.63381 1.45209C6.7903 1.46697 6.99548 1.49894 7.21126 1.54124V2.59238C7.21126 2.97744 7.78871 2.97744 7.78871 2.59238V1.68898C7.83905 1.70608 7.88997 1.72273 7.93815 1.74205C8.22629 1.85711 8.46632 2.01154 8.5923 2.17685C8.71827 2.34216 8.76464 2.50117 8.66899 2.78813C8.43496 3.49023 8.28817 4.14441 8.10451 4.62761C7.92786 5.09235 7.74291 5.36287 7.44416 5.47802H5.32609C5.02719 5.36283 4.84069 5.09235 4.66405 4.62761C4.48039 4.14441 4.3336 3.49023 4.09957 2.78813C4.00392 2.50117 4.0503 2.34216 4.17626 2.17685C4.30223 2.01154 4.54226 1.85711 4.8304 1.74205C4.85317 1.73319 4.8776 1.72523 4.90089 1.71663V2.59238C4.90089 2.97744 5.47834 2.97744 5.47834 2.59238V1.5576C5.69146 1.5126 5.89075 1.47966 6.0558 1.46168V3.16978C6.0558 3.55483 6.63381 3.55483 6.63381 3.16978V1.45209ZM12.7292 3.7461C12.5036 3.74788 12.2858 3.747 12.0897 3.747C11.7286 3.78686 11.7563 4.32048 12.1196 4.32275V4.6126H11.5421C11.5322 4.61208 11.5222 4.61208 11.5123 4.6126C11.1362 4.64042 11.1652 5.20119 11.5421 5.19006H12.1196V5.47764H11.5421C11.1488 5.46878 11.1488 6.06358 11.5421 6.0551H12.1196V6.34498H11.5421C11.5322 6.34439 11.5222 6.34439 11.5123 6.34498C11.1269 6.36491 11.1568 6.9429 11.5421 6.92298H12.1196V10.6758H11.5421V10.386C11.5416 10.2265 11.4118 10.0978 11.2523 10.0984H10.9647V8.3655C10.9641 8.20682 10.8352 8.07847 10.6765 8.07792V6.345C10.6773 6.18126 10.5419 6.04969 10.3782 6.05515C10.3189 6.05692 10.2616 6.0771 10.2141 6.11263L9.05922 6.9805C8.98689 7.03498 8.94434 7.12005 8.94418 7.21058V8.07786C8.93425 8.07729 8.92423 8.07729 8.91429 8.07786C8.76652 8.09257 8.65412 8.21696 8.65433 8.36547V9.4341L8.12537 10.2264C8.09363 10.2736 8.07653 10.3291 8.07631 10.386V13.8518C8.07631 14.0249 8.17144 14.1394 8.37238 14.1394H13.5396C13.7079 14.1536 13.8524 14.0208 13.8525 13.8518V11.5414C13.8525 11.0665 13.4602 10.6758 12.9852 10.6758H12.6971V6.92295H13.2751C13.6604 6.92295 13.6604 6.34492 13.2751 6.34492H12.6971V6.05507H13.2751C13.6518 6.0471 13.6518 5.48577 13.2751 5.47764H12.6971V5.19003H13.2751C13.6688 5.19889 13.6688 4.60373 13.2751 4.61258H12.6971V4.32272C13.1104 4.32272 13.1115 3.7461 12.7292 3.7461ZM5.55955 6.05534H7.13006L6.92987 6.85274C6.92419 6.87577 6.9213 6.89951 6.92141 6.92325V8.94374H6.0558V8.65389C6.0558 8.40097 5.94343 8.17432 5.7682 8.01555V6.92322C5.76826 6.89957 5.76542 6.87575 5.75974 6.85272L5.55955 6.05534ZM10.0991 6.92095V8.07811H9.52163V7.35575L10.0991 6.92095ZM2.01477 8.36572H5.19075C5.35362 8.36572 5.47835 8.49099 5.47834 8.65386V13.5622H4.90089V9.23132C4.90035 9.07264 4.77197 8.94429 4.6133 8.94374H2.59053C2.43185 8.94432 2.30349 9.07264 2.30293 9.23132V13.5622H1.72491V8.65386C1.72491 8.49099 1.85189 8.36572 2.01477 8.36572ZM9.23178 8.65386H10.3867V10.0986C10.3774 10.0981 10.3683 10.0981 10.3591 10.0986C9.97415 10.1173 10.0018 10.6947 10.3867 10.6761H10.9647V13.5622H9.80923V10.3862C9.80901 10.3293 9.79191 10.2739 9.76017 10.2266L9.23178 9.43434L9.23178 8.65386ZM2.88038 9.52117H4.32344V11.2541H2.88038V9.52117ZM6.0558 9.52117H6.92141V13.5622H6.0558V9.52117ZM8.94418 10.0411L9.23178 10.4736V13.5622H8.65433V10.4736L8.94418 10.0411ZM11.5421 11.2541H12.9852C13.1481 11.2541 13.2751 11.3788 13.2751 11.5417V13.5622H11.5421V11.2541ZM2.88038 11.8315H4.32344V13.5622H2.88038V11.8315Z" fill="white"/>
</svg>
