<svg width="15" height="15" viewBox="0 0 15 15" fill="none" xmlns="http://www.w3.org/2000/svg">
<g clip-path="url(#clip0_7_799)">
<path d="M0.73565 4.18614H4.1483C4.25253 3.15874 4.57431 2.2361 5.03658 1.52297C5.64841 0.580177 6.51857 0 7.50202 0C8.48548 0 9.35111 0.584206 9.96747 1.52297C10.4297 2.23207 10.7515 3.15874 10.8558 4.18614H14.2639C14.6672 4.18614 15.0298 4.48026 14.9981 4.83884L14.3137 13.328C14.2276 14.3916 13.4753 15 12.3831 15H2.62099C1.4064 15 0.762842 14.2466 0.690329 13.328L0.0014549 4.84287C-0.0257375 4.48429 0.332296 4.18614 0.73565 4.18614ZM5.00032 4.18614H9.99466C9.89495 3.29573 9.6185 2.50604 9.22421 1.90169C8.771 1.19662 8.15464 0.757454 7.50202 0.757454C6.84487 0.757454 6.23305 1.19662 5.77078 1.90572C5.37649 2.50604 5.10456 3.29976 5.00032 4.18614Z" fill="white"/>
<path d="M4.17281 12.0659C3.99198 11.9688 3.94549 11.7787 4.06948 11.6372C4.19348 11.4957 4.43631 11.4593 4.61714 11.5563C4.7308 11.617 4.84963 11.6776 4.9788 11.7383C5.88811 12.171 6.72509 12.3853 7.42258 12.3853C8.0529 12.3853 8.56438 12.1993 8.88988 11.8232C8.91054 11.7949 8.93121 11.7787 8.93638 11.7666C9.02938 11.6493 9.09654 11.524 9.14304 11.4027C9.23604 11.1519 9.22054 10.8931 9.09137 10.6586C8.95188 10.4119 8.68322 10.1733 8.26472 9.97516C7.98573 9.84171 7.63957 9.72443 7.22108 9.63547C6.15677 9.40092 5.37145 9.06932 4.9478 8.62449C4.48281 8.13518 4.44664 7.54477 4.94263 6.829C5.27329 6.35586 5.95011 6.06065 6.80776 6.00808C7.54657 5.9636 8.43522 6.10109 9.33937 6.461C9.5357 6.53783 9.61319 6.72385 9.50986 6.87752C9.40653 7.03119 9.17404 7.09185 8.97771 7.01097C8.20789 6.70364 7.47424 6.58636 6.86459 6.62276C6.28077 6.65915 5.83644 6.83708 5.64012 7.12016C5.30946 7.59329 5.31462 7.96533 5.58328 8.24841C5.89328 8.57596 6.5391 8.83073 7.43808 9.02888C7.92373 9.13807 8.33706 9.27556 8.67805 9.43732C9.2412 9.70421 9.61836 10.0399 9.81986 10.4038C10.0265 10.7799 10.0524 11.1762 9.91286 11.5644C9.85086 11.7383 9.75269 11.9122 9.61836 12.082C9.58736 12.1184 9.5667 12.1467 9.5512 12.167C9.07071 12.721 8.33189 12.996 7.43291 13C6.59076 13 5.60912 12.7574 4.5758 12.264C4.44664 12.2074 4.31231 12.1427 4.17281 12.0659Z" fill="black"/>
</g>
<defs>
<clipPath id="clip0_7_799">
<rect width="15" height="15" fill="white"/>
</clipPath>
</defs>
</svg>
